<?xml version="1.0" encoding="utf-8"?>
<!-- Generator: Adobe Illustrator 25.0.0, SVG Export Plug-In . SVG Version: 6.00 Build 0)  -->
<svg version="1.1" id="Layer_1" xmlns="http://www.w3.org/2000/svg" xmlns:xlink="http://www.w3.org/1999/xlink" x="0px" y="0px"
	 viewBox="0 0 24 24" style="enable-background:new 0 0 24 24;" xml:space="preserve">
<style type="text/css">
	.st0{stroke:#000000;stroke-width:0.09;stroke-miterlimit:10;}
</style>
<g>
	<g>
		<path class="st0" d="M0,12.21c0.01-1.79,1.48-3.27,3.25-3.27c1.49,0,2.77,1.03,3.14,2.51c0.1,0.42,0.06,0.38,0.47,0.26
			c0.88-0.25,1.78-0.46,2.67-0.67c0.2-0.05,0.27-0.15,0.3-0.33c0.37-2.37,0.7-4.74,1.13-7.1c0.28-1.55,1.1-2.78,2.64-3.4
			c0.26-0.11,0.54-0.17,0.83-0.19c0.39-0.02,0.62,0.2,0.58,0.59c-0.09,0.74-0.19,1.48-0.3,2.21c-0.27,1.85-0.54,3.71-0.81,5.56
			c-0.08,0.57-0.16,1.15-0.25,1.72c-0.03,0.21,0.02,0.23,0.21,0.21c1.38-0.2,2.76-0.39,4.15-0.59c1.76-0.25,3.51-0.51,5.27-0.75
			c0.56-0.08,0.81,0.2,0.71,0.76c-0.23,1.28-1.01,2.13-2.11,2.74c-0.71,0.4-1.49,0.55-2.29,0.66c-2.01,0.29-4.01,0.62-6.02,0.89
			c-0.46,0.06-0.65,0.24-0.76,0.68c-0.2,0.8-0.46,1.59-0.7,2.38c-0.11,0.35-0.1,0.34,0.25,0.42c1.39,0.31,2.29,1.14,2.6,2.54
			c0.44,1.95-1.12,3.89-3.13,3.9c-2.05,0.01-3.57-1.72-3.34-3.76c0.09-0.83,0.35-1.61,0.62-2.4c0.37-1.07,0.68-2.16,0.62-3.31
			c-0.02-0.46-0.04-0.49-0.49-0.46c-1.12,0.07-2.19,0.37-3.22,0.8c-0.71,0.3-1.43,0.57-2.21,0.66c-1.82,0.21-3.44-0.96-3.77-2.76
			C0.01,12.56,0.01,12.39,0,12.21z M11.74,22.9c1.24,0,2.23-0.97,2.23-2.19c0-1.24-0.98-2.22-2.23-2.21c-0.61,0-0.91-0.34-0.85-0.95
			c0.01-0.14,0.05-0.27,0.09-0.4c0.34-1.13,0.69-2.25,1-3.38c0.31-1.12,0.38-2.28,0.55-3.42c0.3-1.96,0.57-3.93,0.86-5.89
			c0.13-0.93,0.27-1.85,0.41-2.78c0.01-0.08,0.04-0.18-0.03-0.24c-0.08-0.06-0.16,0.02-0.22,0.05c-0.42,0.23-0.76,0.54-1.02,0.94
			C12.17,3,12.01,3.63,11.91,4.28c-0.39,2.53-0.8,5.06-1.19,7.59c-0.07,0.49-0.23,0.97-0.11,1.49c0.21,0.89,0.19,1.79,0.05,2.68
			c-0.16,1.01-0.52,1.95-0.82,2.91c-0.18,0.57-0.32,1.15-0.31,1.76C9.56,21.95,10.52,22.9,11.74,22.9z M13.47,13
			c-0.01,0,0.04,0,0.08-0.01c2.16-0.33,4.32-0.65,6.48-0.98c1-0.16,1.86-0.58,2.42-1.47c0.06-0.1,0.21-0.22,0.12-0.34
			c-0.07-0.09-0.22-0.02-0.34-0.01c-1.63,0.23-3.25,0.46-4.88,0.7c-1.19,0.17-2.38,0.34-3.57,0.51c-0.21,0.03-0.35,0.1-0.38,0.34
			c-0.03,0.36-0.09,0.71-0.15,1.06C13.23,12.95,13.27,13.02,13.47,13z M3.44,14.45c0.16-0.01,0.31-0.02,0.47-0.05
			c0.61-0.08,1.16-0.33,1.73-0.56c1.08-0.44,2.18-0.76,3.35-0.86c0.51-0.04,0.51-0.06,0.58-0.58c0.04-0.3,0.04-0.3-0.27-0.22
			c-0.93,0.23-1.85,0.48-2.78,0.7c-0.59,0.14-1-0.19-1.04-0.79c-0.06-0.9-0.5-1.55-1.32-1.91c-0.82-0.36-1.61-0.24-2.3,0.33
			c-0.71,0.59-0.91,1.36-0.71,2.24C1.38,13.82,2.27,14.44,3.44,14.45z"/>
		<path class="st0" d="M13.52,20.71c0,0.98-0.79,1.77-1.77,1.76c-0.96,0-1.76-0.79-1.77-1.75c-0.01-0.98,0.81-1.81,1.78-1.8
			C12.73,18.93,13.52,19.73,13.52,20.71z M11.75,21.41c0.41,0,0.73-0.31,0.72-0.7c-0.01-0.39-0.34-0.71-0.73-0.71
			c-0.38,0-0.7,0.33-0.71,0.7C11.03,21.1,11.34,21.41,11.75,21.41z"/>
		<path class="st0" d="M10.99,11.98c0-0.31,0.21-0.52,0.51-0.52c0.3,0,0.52,0.22,0.52,0.52c0,0.29-0.21,0.5-0.5,0.51
			C11.21,12.5,11,12.29,10.99,11.98z"/>
		<path class="st0" d="M3.24,13.99c-1-0.02-1.76-0.83-1.73-1.83c0.02-0.96,0.85-1.72,1.84-1.7c0.96,0.02,1.75,0.86,1.72,1.8
			C5.02,13.24,4.21,14.01,3.24,13.99z M2.57,12.22c0,0.41,0.29,0.72,0.7,0.73c0.38,0,0.72-0.34,0.71-0.73
			c0-0.39-0.34-0.72-0.72-0.71C2.88,11.51,2.58,11.82,2.57,12.22z"/>
	</g>
</g>
<rect x="-10.2" y="-1.95" width="9.11" height="9.11"/>
</svg>
