<?xml version="1.0" encoding="utf-8"?><svg version="1.1" id="Layer_1" xmlns="http://www.w3.org/2000/svg" xmlns:xlink="http://www.w3.org/1999/xlink" x="0px" y="0px" viewBox="0 0 122.88 120.25" style="enable-background:new 0 0 122.88 120.25" xml:space="preserve"><style type="text/css">.st0{fill-rule:evenodd;clip-rule:evenodd;}</style><g><path class="st0" d="M102.6,82.95c1.33-2.84,1.31-5.18,0.03-7.07l-7.95,13.8l1.97,3.5L102.6,82.95L102.6,82.95L102.6,82.95z M42.6,60.23c-4.24,2.97-8.67,4.07-13,4.87l6.18,17.52h30.79c-0.89,2.77-1.37,5.72-1.37,8.79c0,7.96,3.23,15.17,8.45,20.39 c5.22,5.22,12.43,8.45,20.39,8.45c7.96,0,15.17-3.23,20.39-8.45c5.22-5.22,8.45-12.43,8.45-20.39s-3.23-15.17-8.45-20.39 c-5.22-5.22-12.43-8.45-20.39-8.45c-4.04,0-7.89,0.83-11.39,2.34c-2.73-0.32-5.24-0.77-7.34-1.86c-1.29-0.8-2.43-1.92-3.46-3.34 l-0.18-2.9c1-0.82,1.97-1.79,2.79-2.86c1.86-2.32,2.57-4.72,3.47-7.76c0.18-0.64,0.36-1.29,0.57-1.93 c1.75-0.18,3.29-2.15,4.22-4.58c0.5-1.36,0.89-2.9,1-4.25c0.14-1.43,0-2.75-0.5-3.65c-0.39-0.72-1-1.18-1.82-1.25 c-0.11-1.28,1.02-5.16,1.82-7.52c9.64-28.39-60.25-33.3-52.94,1.06l1.57,7.5c-0.61,1-0.75,2.57-0.57,4.25 c0.18,1.64,0.68,3.36,1.39,4.79c0.93,1.82,2.25,3.11,3.79,3.11c0.14,0.43,0.32,0.89,0.46,1.36c1.25,3.68,2.18,6.47,4.43,9.12 c0.64,0.79,1.36,1.5,2.11,2.14l-0.18,3.25C43.07,59.82,42.84,60.03,42.6,60.23L42.6,60.23z M111.17,74.28 c-4.38-4.38-10.44-7.1-17.13-7.1c-6.69,0-12.75,2.71-17.13,7.1c-4.38,4.38-7.1,10.44-7.1,17.13c0,6.69,2.71,12.75,7.1,17.13 c4.38,4.38,10.44,7.1,17.13,7.1c6.69,0,12.75-2.71,17.13-7.1c4.38-4.38,7.1-10.44,7.1-17.13 C118.27,84.72,115.56,78.66,111.17,74.28L111.17,74.28z M69.42,57.97c-4.03,2.69-6.5,4.17-11.72,4.04 c-5.08-0.08-7.73-1.79-11.79-4.36C45.61,74.6,69.83,75.61,69.42,57.97L69.42,57.97z M75.46,45.67c0.21-0.75,0.46-1.54,0.75-2.47 c0.11-0.39,0.5-0.68,0.89-0.61c1.18,0.21,2.36-1.5,3.18-3.58c0.46-1.25,0.82-2.61,0.93-3.83c0.11-1.14,0-2.15-0.32-2.75 c-0.32-0.59-1.2-0.25-1.86-0.82c-3.39,8.98-32.91,13.04-45,0.68c-0.43,0.68-0.5,1.89-0.36,3.25c0.18,1.43,0.61,3,1.25,4.25 c0.75,1.47,1.72,2.47,2.68,2.22c0.39-0.11,0.82,0.11,0.97,0.5c0.29,0.79,0.46,1.39,0.68,2C45.53,62.91,69.32,64.35,75.46,45.67 L75.46,45.67z M26.66,88.18c1.4,0,2.53,1.13,2.53,2.53c0,1.4-1.13,2.53-2.53,2.53c-1.4,0-2.53-1.13-2.53-2.53 C24.13,89.31,25.26,88.18,26.66,88.18L26.66,88.18z M85.18,90.71C85.18,82.18,85.18,99.24,85.18,90.71L85.18,90.71z M22.44,66.43 C14.45,68.24,7.44,72.17,3.5,89.5L0,102.89h18.98V86.31c0-2.03,1.66-3.69,3.69-3.69h3.95C26.46,76.2,23.25,69.46,22.44,66.43 L22.44,66.43z M85.63,82.95c-1.33-2.84-1.31-5.18-0.03-7.07l9.62,16.69c0.45,0.58,0.72,1.19,0.76,1.85 c0.03,0.62-0.15,0.85-0.24,1.38c-0.08,0.45-0.04,0.91,0.27,1.39l0.4,0.44c0.36,0.39,0.67,0.87,1.28,0.79 c0.41-0.05,0.75-0.4,1.04-0.95c0.38-0.42,0.82-0.74,1.33-0.97c0.49-0.22,1.05-0.34,1.67-0.37c1.94,0.1,3.62,1.01,4.87,3.19 c1.53,2.49,1.35,4.59,0.22,6.47c-0.87,1.14-1.93,1.65-3.13,1.65c-1.83,0-3.31-0.88-4.46-2.24c-0.73-0.87-1.33-1.91-1.97-3.07 l-2.32-2.96l-0.27-0.69L85.63,82.95L85.63,82.95L85.63,82.95z M94.17,93.29c0.51,0,0.92,0.41,0.92,0.92c0,0.51-0.41,0.92-0.92,0.92 c-0.51,0-0.92-0.41-0.92-0.92C93.25,93.7,93.66,93.29,94.17,93.29L94.17,93.29z M99.88,99c0.66-1,1.76-1.11,2.81-0.74 c0.85,0.3,1.57,0.93,2.19,1.88c0.52,0.8,0.92,2.09,0.82,3.21c-0.2,2.17-2.13,2.58-3.82,1.63c-0.75-0.42-1.35-1.05-1.78-1.89 c-0.29-0.57-0.54-1.25-0.63-1.94C99.38,100.4,99.47,99.64,99.88,99L99.88,99L99.88,99z M92.49,96.58c-0.04,0.2-0.13,0.41-0.26,0.62 l-0.4,0.44c-0.36,0.39-0.67,0.87-1.28,0.79c-0.41-0.05-0.75-0.4-1.04-0.95c-0.38-0.42-0.82-0.74-1.33-0.97 c-0.49-0.22-1.05-0.34-1.67-0.37c-1.94,0.1-3.62,1.01-4.87,3.19c-1.53,2.49-1.35,4.59-0.22,6.47c0.87,1.14,1.93,1.65,3.13,1.65 c1.83,0,3.31-0.88,4.46-2.24c0.73-0.87,1.33-1.91,1.97-3.07l2.73-3.49l-0.09-0.15l-0.03-0.05L92.49,96.58L92.49,96.58L92.49,96.58z M88.34,99c-0.66-1-1.76-1.11-2.81-0.74c-0.85,0.3-1.57,0.93-2.19,1.88c-0.52,0.8-0.92,2.09-0.82,3.21 c0.2,2.17,2.13,2.58,3.82,1.63c0.75-0.42,1.35-1.05,1.78-1.89c0.29-0.57,0.54-1.25,0.63-1.94C88.85,100.4,88.76,99.64,88.34,99 L88.34,99L88.34,99z"/></g></svg>